<!-- Generated by IcoMoon.io -->
<svg version="1.1" xmlns="http://www.w3.org/2000/svg" width="1024" height="1024" viewBox="0 0 1024 1024">
<title></title>
<g id="icomoon-ignore">
</g>
<path fill="#f39119" d="M493.056 1007.923c-15.667-0.717-42.906-3.686-59.904-6.554-146.432-24.576-273.613-113.459-348.16-243.098-9.011-15.667-23.347-45.363-30.003-62.464-16.179-41.165-26.624-83.354-32.154-129.024-1.434-12.288-1.843-23.245-1.843-54.272 0-41.677 0.819-52.941 6.246-84.48 13.21-77.926 47.718-156.672 95.437-218.010 27.648-35.533 62.157-69.427 96.768-95.334 130.662-97.178 299.725-124.109 454.861-72.192 30.618 10.138 63.693 25.088 90.010 40.346l9.216 5.325 6.758-3.072c27.853-12.902 60.211 2.048 69.018 31.539 2.048 6.861 2.15 19.251 0.205 26.317-6.963 26.112-33.485 41.984-59.802 35.738-22.118-5.222-38.093-25.19-38.093-47.718v-6.963l-10.957-6.246c-67.994-38.605-146.637-59.392-225.178-59.392-121.958 0-239.514 49.869-325.018 137.83-48.538 49.971-84.378 109.158-106.189 175.514-30.208 91.546-29.696 193.331 1.229 285.286 53.146 157.901 189.645 274.842 353.28 302.899 29.389 5.018 43.725 6.144 77.312 6.144s48.026-1.126 77.312-6.144c121.958-20.992 230.81-91.955 300.032-195.482 41.267-61.747 65.434-128.512 74.445-205.824 0.819-7.168 1.331-24.371 1.331-47.616-0.102-31.949-0.307-38.502-2.355-53.76-6.144-45.466-16.896-84.992-34.099-124.826-3.789-9.011-7.373-16.691-7.782-17.101s-3.994-1.331-7.782-1.946c-10.138-1.536-19.149-6.042-26.317-12.902-10.854-10.342-15.36-21.094-15.36-36.352s4.403-25.702 15.258-36.045c19.558-18.637 50.074-18.227 69.325 0.922 13.926 13.824 18.227 33.997 11.366 52.838-1.331 3.789-3.789 8.602-5.325 10.65-3.379 4.403-3.789 2.662 5.939 24.986 18.739 43.008 31.437 91.853 37.171 142.848 2.253 20.173 2.97 63.693 1.536 84.992-5.12 72.090-24.678 140.595-57.651 201.728-90.829 168.55-268.595 269.312-460.083 260.915zM930.099 283.546c7.885-2.15 15.053-11.366 15.053-19.354 0-4.608-2.97-11.059-6.758-14.541-8.499-7.987-19.558-7.68-27.648 0.717-8.192 8.499-8.090 19.456 0.205 27.75 5.939 5.939 11.571 7.578 19.149 5.427zM812.339 146.739c12.288-8.602 11.878-25.702-0.717-33.587-16.896-10.342-36.557 7.578-28.365 25.702 5.018 10.957 19.251 14.848 29.082 7.885z"></path>
<path fill="#f39119" d="M620.544 700.416v-17.408l-49.152-0.205-49.152-0.307 168.858-270.336-151.45-0.512v-56.32h80.896v-34.816h93.184v34.816h45.67c36.147 0 45.568 0.307 45.158 1.331-0.307 0.614-38.195 61.338-84.070 134.861l-83.661 133.632 161.894 0.512v57.344h-84.992v34.816h-93.184v-17.408z"></path>
<path fill="#f39119" d="M214.016 519.168v-163.84h59.802c32.973 0 65.843 0.512 73.011 1.126 51.302 4.198 81.818 16.589 110.080 44.544 22.938 22.835 37.069 51.917 42.189 86.938 7.066 48.538-2.048 96.256-24.883 129.843-22.016 32.358-56.627 54.272-96.461 61.030-20.89 3.584-36.25 4.198-100.864 4.198h-62.874v-163.84zM353.28 621.158c45.363-7.885 68.301-32.666 73.83-80.282 1.638-13.926 0.614-44.339-1.946-56.013-8.192-37.581-28.365-57.754-66.355-66.15-8.909-1.946-14.131-2.253-42.086-2.662l-32.051-0.512v208.384l29.491-0.614c20.378-0.307 32.358-1.024 39.117-2.15z"></path>
</svg>
